<svg width="600" height="601" viewBox="0 0 600 601" fill="none" xmlns="http://www.w3.org/2000/svg">
<path d="M373 300C373 381.822 363.198 455.326 347.692 507.888C339.91 534.267 330.936 554.522 321.645 567.844C312.051 581.599 304.331 585 299.5 585C294.669 585 286.949 581.599 277.355 567.844C268.064 554.522 259.09 534.267 251.308 507.888C235.802 455.326 226 381.822 226 300C226 218.178 235.802 144.674 251.308 92.1121C259.09 65.7332 268.064 45.4782 277.355 32.1564C286.949 18.4012 294.669 15 299.5 15C304.331 15 312.051 18.4012 321.645 32.1564C330.936 45.4782 339.91 65.7332 347.692 92.1121C363.198 144.674 373 218.178 373 300Z" stroke="url(#paint0_linear_1_12)" stroke-width="30"/>
<path d="M55.4602 279.21C55.4602 276.99 56.2102 275.28 57.7102 274.08C59.2102 272.82 61.2802 272.19 63.9202 272.19L85.7002 324.48L83.9902 328.71L84.6202 328.98L107.66 272.19C110.3 272.19 112.37 272.82 113.87 274.08C115.43 275.34 116.21 277.08 116.21 279.3V336.81C110.63 336.81 107.84 334.5 107.84 329.88V291.99L110.18 285.78L109.46 285.6L89.3902 334.38C89.0902 335.1 88.6102 335.67 87.9502 336.09C87.2902 336.57 86.6002 336.81 85.8802 336.81C85.1002 336.81 84.3802 336.6 83.7202 336.18C83.0602 335.76 82.5802 335.16 82.2802 334.38L62.2102 285.51L61.4902 285.78L63.8302 291.9V329.88C63.8302 332.16 63.1102 333.9 61.6702 335.1C60.2902 336.24 58.2202 336.81 55.4602 336.81V279.21ZM128.849 276.96C128.849 275.82 129.269 274.89 130.109 274.17C130.949 273.39 131.969 273 133.169 273H173.039C173.039 275.52 172.529 277.38 171.509 278.58C170.489 279.78 168.899 280.38 166.739 280.38H137.309V300.54H162.509C162.509 303.06 161.999 304.92 160.979 306.12C159.959 307.32 158.399 307.92 156.299 307.92H137.309V328.62H168.629C170.729 328.62 172.289 329.22 173.309 330.42C174.329 331.62 174.839 333.48 174.839 336H133.169C131.969 336 130.949 335.64 130.109 334.92C129.269 334.14 128.849 333.18 128.849 332.04V276.96ZM185.187 279.21C185.187 276.99 185.937 275.28 187.437 274.08C188.937 272.82 191.007 272.19 193.647 272.19L215.427 324.48L213.717 328.71L214.347 328.98L237.387 272.19C240.027 272.19 242.097 272.82 243.597 274.08C245.157 275.34 245.937 277.08 245.937 279.3V336.81C240.357 336.81 237.567 334.5 237.567 329.88V291.99L239.907 285.78L239.187 285.6L219.117 334.38C218.817 335.1 218.337 335.67 217.677 336.09C217.017 336.57 216.327 336.81 215.607 336.81C214.827 336.81 214.107 336.6 213.447 336.18C212.787 335.76 212.307 335.16 212.007 334.38L191.937 285.51L191.217 285.78L193.557 291.9V329.88C193.557 332.16 192.837 333.9 191.397 335.1C190.017 336.24 187.947 336.81 185.187 336.81V279.21ZM262.895 336C261.695 336 260.675 335.61 259.835 334.83C258.995 334.05 258.575 333.12 258.575 332.04V276.96C258.575 275.82 258.995 274.89 259.835 274.17C260.675 273.39 261.695 273 262.895 273H287.915C293.135 273 297.275 274.56 300.335 277.68C303.455 280.8 305.015 285 305.015 290.28C305.015 293.1 304.265 295.74 302.765 298.2C301.265 300.66 299.315 302.49 296.915 303.69V303.87C300.335 304.89 302.975 306.66 304.835 309.18C306.695 311.64 307.625 314.64 307.625 318.18C307.625 321.66 306.875 324.75 305.375 327.45C303.935 330.15 301.895 332.25 299.255 333.75C296.615 335.25 293.585 336 290.165 336H262.895ZM287.735 300.81C290.195 300.81 292.295 299.82 294.035 297.84C295.835 295.8 296.735 293.34 296.735 290.46C296.735 287.28 295.925 284.79 294.305 282.99C292.745 281.19 290.555 280.29 287.735 280.29H266.945V300.81H287.735ZM289.535 328.71C292.595 328.71 294.995 327.81 296.735 326.01C298.475 324.15 299.345 321.57 299.345 318.27C299.345 315.09 298.475 312.6 296.735 310.8C295.055 309 292.655 308.1 289.535 308.1H266.945V328.71H289.535ZM317.989 276.96C317.989 275.82 318.379 274.89 319.159 274.17C319.999 273.39 321.049 273 322.309 273H347.149C352.969 273 357.589 274.71 361.009 278.13C364.489 281.49 366.229 285.99 366.229 291.63C366.229 298.71 363.139 303.72 356.959 306.66V306.93C359.659 308.07 361.729 309.81 363.169 312.15C364.609 314.43 365.329 317.22 365.329 320.52V329.79C365.329 332.07 364.609 333.81 363.169 335.01C361.729 336.21 359.629 336.81 356.869 336.81V321.06C356.869 317.52 356.059 314.85 354.439 313.05C352.879 311.19 350.539 310.26 347.419 310.26H326.359V329.79C326.359 332.07 325.639 333.81 324.199 335.01C322.819 336.21 320.749 336.81 317.989 336.81V276.96ZM346.879 302.97C350.179 302.97 352.789 301.95 354.709 299.91C356.689 297.87 357.679 295.08 357.679 291.54C357.679 287.94 356.749 285.18 354.889 283.26C353.029 281.34 350.359 280.38 346.879 280.38H326.359V302.97H346.879ZM381.441 336.81C379.641 336.45 378.231 335.7 377.211 334.56C376.191 333.36 375.681 331.92 375.681 330.24C375.681 329.1 375.951 327.9 376.491 326.64L398.001 274.89C398.721 273.09 400.101 272.19 402.141 272.19C404.061 272.19 405.411 273.09 406.191 274.89L427.701 326.64C428.241 327.9 428.511 329.1 428.511 330.24C428.511 331.86 428.001 333.27 426.981 334.47C425.961 335.67 424.551 336.45 422.751 336.81L415.011 318H389.181L381.441 336.81ZM412.401 310.71L400.791 281.28L400.071 281.55L401.691 285.69L391.791 310.71H412.401ZM438.839 279.48C438.839 277.2 439.529 275.43 440.909 274.17C442.349 272.85 444.329 272.19 446.849 272.19L481.769 325.29L482.399 324.75L479.789 320.43V272.19C482.549 272.19 484.619 272.79 485.999 273.99C487.439 275.19 488.159 276.93 488.159 279.21V330.15C488.159 332.07 487.469 333.66 486.089 334.92C484.769 336.18 483.059 336.81 480.959 336.81L445.229 282.54L444.599 283.08L447.209 287.4V329.79C447.209 332.07 446.489 333.81 445.049 335.01C443.669 336.21 441.599 336.81 438.839 336.81V279.48ZM500.802 276.96C500.802 275.82 501.222 274.89 502.062 274.17C502.902 273.39 503.922 273 505.122 273H544.992C544.992 275.52 544.482 277.38 543.462 278.58C542.442 279.78 540.852 280.38 538.692 280.38H509.262V300.54H534.462C534.462 303.06 533.952 304.92 532.932 306.12C531.912 307.32 530.352 307.92 528.252 307.92H509.262V328.62H540.582C542.682 328.62 544.242 329.22 545.262 330.42C546.282 331.62 546.792 333.48 546.792 336H505.122C503.922 336 502.902 335.64 502.062 334.92C501.222 334.14 500.802 333.18 500.802 332.04V276.96Z" fill="url(#paint1_linear_1_12)"/>
<defs>
<linearGradient id="paint0_linear_1_12" x1="246" y1="-14.5" x2="464" y2="1068" gradientUnits="userSpaceOnUse">
<stop stop-color="#009CA8"/>
<stop offset="0.5" stop-color="#00464B"/>
<stop offset="1" stop-color="#000E0F"/>
</linearGradient>
<linearGradient id="paint1_linear_1_12" x1="49" y1="300.5" x2="896" y2="312" gradientUnits="userSpaceOnUse">
<stop stop-color="#BEB3A2"/>
<stop offset="0.5" stop-color="#BEB3A2"/>
<stop offset="1" stop-color="#27231C"/>
</linearGradient>
</defs>
</svg>
